HIERARCHY
ROOT Hips
{
	OFFSET 0.00000 0.00000 0.00000
	CHANNELS 6 Xposition Yposition Zposition Zrotation Yrotation Xrotation 
	JOINT LHipJoint
	{
		OFFSET 0 0 0
		CHANNELS 3 Zrotation Yrotation Xrotation
		JOINT LeftUpLeg
		{
			OFFSET 1.53794 -1.55850 0.93568
			CHANNELS 3 Zrotation Yrotation Xrotation
			JOINT LeftLeg
			{
				OFFSET 2.28545 -6.27922 0.00000
				CHANNELS 3 Zrotation Yrotation Xrotation
				JOINT LeftFoot
				{
					OFFSET 2.37329 -6.52057 0.00000
					CHANNELS 3 Zrotation Yrotation Xrotation
					JOINT LeftToeBase
					{
						OFFSET 0.14846 -0.40788 2.09160
						CHANNELS 3 Zrotation Yrotation Xrotation
						End Site
						{
							OFFSET 0.00000 -0.00000 1.07536
						}
					}
				}
			}
		}
	}
	JOINT RHipJoint
	{
		OFFSET 0 0 0
		CHANNELS 3 Zrotation Yrotation Xrotation
		JOINT RightUpLeg
		{
			OFFSET -1.78290 -1.55850 0.93568
			CHANNELS 3 Zrotation Yrotation Xrotation
			JOINT RightLeg
			{
				OFFSET -2.24144 -6.15831 0.00000
				CHANNELS 3 Zrotation Yrotation Xrotation
				JOINT RightFoot
				{
					OFFSET -2.35091 -6.45907 0.00000
					CHANNELS 3 Zrotation Yrotation Xrotation
					JOINT RightToeBase
					{
						OFFSET -0.14428 -0.39641 2.07944
						CHANNELS 3 Zrotation Yrotation Xrotation
						End Site
						{
							OFFSET -0.00000 -0.00000 1.06864
						}
					}
				}
			}
		}
	}
	JOINT LowerBack
	{
		OFFSET 0 0 0
		CHANNELS 3 Zrotation Yrotation Xrotation
		JOINT Spine
		{
			OFFSET -0.08841 2.11430 -0.15818
			CHANNELS 3 Zrotation Yrotation Xrotation
			JOINT Spine1
			{
				OFFSET -0.00033 2.12605 -0.08097
				CHANNELS 3 Zrotation Yrotation Xrotation
				JOINT Neck
				{
					OFFSET 0 0 0
					CHANNELS 3 Zrotation Yrotation Xrotation
					JOINT Neck1
					{
						OFFSET 0.04431 1.59447 0.43193
						CHANNELS 3 Zrotation Yrotation Xrotation
						JOINT Head
						{
							OFFSET 0.00455 1.62017 -0.58852
							CHANNELS 3 Zrotation Yrotation Xrotation
							End Site
							{
								OFFSET -0.00920 1.72955 -0.25850
							}
						}
					}
				}
				JOINT LeftShoulder
				{
					OFFSET 0 0 0
					CHANNELS 3 Zrotation Yrotation Xrotation
					JOINT LeftArm
					{
						OFFSET 2.86490 1.49927 -0.33774
						CHANNELS 3 Zrotation Yrotation Xrotation
						JOINT LeftForeArm
						{
							OFFSET 4.87408 -0.00000 0.00000
							CHANNELS 3 Zrotation Yrotation Xrotation
							JOINT LeftHand
							{
								OFFSET 2.76729 -0.00000 0.00000
								CHANNELS 3 Zrotation Yrotation Xrotation
								JOINT LeftFingerBase
								{
									OFFSET 0 0 0
									CHANNELS 3 Zrotation Yrotation Xrotation
									JOINT LeftHandIndex1
									{
										OFFSET 0.98922 -0.00000 0.00000
										CHANNELS 3 Zrotation Yrotation Xrotation
										End Site
										{
											OFFSET 0.79753 -0.00000 0.00000
										}
									}
								}
								JOINT LThumb
								{
									OFFSET 0 0 0
									CHANNELS 3 Zrotation Yrotation Xrotation
									End Site
									{
										OFFSET 0.80972 -0.00000 0.80972
									}
								}
							}
						}
					}
				}
				JOINT RightShoulder
				{
					OFFSET 0 0 0
					CHANNELS 3 Zrotation Yrotation Xrotation
					JOINT RightArm
					{
						OFFSET -2.94414 1.45463 -0.25291
						CHANNELS 3 Zrotation Yrotation Xrotation
						JOINT RightForeArm
						{
							OFFSET -4.71404 -0.00000 0.00000
							CHANNELS 3 Zrotation Yrotation Xrotation
							JOINT RightHand
							{
								OFFSET -2.83468 -0.00000 0.00000
								CHANNELS 3 Zrotation Yrotation Xrotation
								JOINT RightFingerBase
								{
									OFFSET 0 0 0
									CHANNELS 3 Zrotation Yrotation Xrotation
									JOINT RightHandIndex1
									{
										OFFSET -0.86820 -0.00000 0.00000
										CHANNELS 3 Zrotation Yrotation Xrotation
										End Site
										{
											OFFSET -0.69996 -0.00000 0.00000
										}
									}
								}
								JOINT RThumb
								{
									OFFSET 0 0 0
									CHANNELS 3 Zrotation Yrotation Xrotation
									End Site
									{
										OFFSET -0.71065 -0.00000 0.71065
									}
								}
							}
						}
					}
				}
			}
		}
	}
}
MOTION
Frames: 14
Frame Time: .0083333
2.0014 16.0093 -7.8081 177.8470 -2.8823 -170.8230 0.0000 0.0000 0.0000 -23.1145 -12.6927 -24.6141 3.1975 11.0081 32.3071 -0.6342 14.4142 -1.4203 0.0647 -1.6409 -4.5143 0.0000 0.0000 0.0000 19.1374 -2.4136 -2.4874 -9.8318 -17.3142 58.9248 0.4248 -22.4450 12.4830 -0.9414 6.1799 -17.3072 -4.5299 3.1796 -1.9764 -2.4207 4.3158 0.8480 0.1875 2.0719 1.8300 -1.6837 -3.4000 -34.7984 4.6895 -8.1547 36.9777 0.2780 -2.9969 21.0133 -0.0000 0.0000 0.0000 -67.1612 27.1447 63.0176 124.0965 -55.1157 -89.0442 -0.0000 -0.0000 17.8994 13.5137 2.6800 0.6438 -7.1250 0.0000 -0.0000 -10.5617 32.6092 3.2529 -0.0000 0.0000 0.0000 84.3942 -19.7131 52.7959 -112.6069 57.9780 -79.4452 0.0000 0.0000 6.6056 -10.2418 -1.7759 0.3208 7.1250 -0.0000 -0.0000 13.0294 -31.6093 4.3669
1.9913 15.9400 -8.1386 176.9180 -2.5100 -171.2090 0.0000 0.0000 0.0000 -24.5319 -12.2173 -22.9683 3.2955 11.1587 32.8170 -0.7823 15.6585 -3.0106 0.0620 -1.6061 -4.4182 0.0000 0.0000 0.0000 17.5181 -2.1719 -4.2505 -10.8507 -17.8613 62.2959 0.6125 -22.3082 10.7100 -0.9244 6.1252 -17.1480 -5.5659 2.9549 -1.4968 -2.6482 3.9891 1.1163 0.4969 1.8786 1.7950 -1.4907 -3.2188 -34.9212 4.7786 -7.9287 36.6270 0.3564 -2.8601 20.8022 -0.0000 0.0000 0.0000 -68.6400 25.5961 62.4490 122.6901 -55.5494 -87.8874 -0.0000 -0.0000 18.1206 13.7368 2.8516 0.6968 -7.1250 0.0000 -0.0000 -10.4056 32.7898 3.1573 -0.0000 0.0000 0.0000 85.1415 -20.7881 51.0017 -109.7934 58.4666 -77.0534 0.0000 0.0000 7.1997 -10.5374 -2.2145 0.4118 7.1250 -0.0000 -0.0000 12.8609 -32.0523 4.1671
1.9845 15.8784 -8.4612 175.8900 -2.0383 -171.5660 0.0000 0.0000 0.0000 -26.0341 -11.5223 -21.3318 3.3420 11.2290 33.0563 -0.9058 16.6666 -4.2823 0.0672 -1.6721 -4.6004 0.0000 0.0000 0.0000 15.8010 -1.7250 -6.1513 -11.8625 -18.3319 65.5523 0.7750 -22.1175 8.9510 -0.9159 6.0978 -17.0684 -6.7334 2.7633 -1.0096 -2.9103 3.6874 1.3721 0.8450 1.6902 1.7449 -1.3290 -3.0467 -35.0542 4.9023 -7.7210 36.2828 0.4510 -2.7295 20.6071 -0.0000 0.0000 0.0000 -70.0984 23.9900 61.8889 121.2385 -55.9708 -86.6874 -0.0000 -0.0000 18.4150 13.8741 3.0942 0.7638 -7.1250 0.0000 -0.0000 -10.3271 33.0399 3.0694 -0.0000 0.0000 0.0000 85.8297 -21.8902 49.1644 -106.9567 58.8852 -74.6299 0.0000 0.0000 7.7080 -10.9351 -2.6005 0.5022 7.1250 -0.0000 -0.0000 12.6032 -32.4477 3.9568
1.9806 15.8264 -8.7765 174.8960 -1.5083 -171.8520 0.0000 0.0000 0.0000 -27.4446 -10.6646 -19.7959 3.3519 11.2441 33.1076 -1.0008 17.4199 -5.2753 0.0795 -1.8185 -5.0044 0.0000 0.0000 0.0000 14.1654 -1.0687 -8.2147 -12.8305 -18.7201 68.5983 0.9167 -21.9395 7.2401 -0.9121 6.0855 -17.0327 -7.8905 2.5904 -0.5761 -3.1648 3.3970 1.5847 1.1982 1.5048 1.6894 -1.1710 -2.8606 -35.1898 5.0098 -7.4999 35.9926 0.5400 -2.5982 20.4476 0.0000 0.0000 0.0000 -71.4878 22.4145 61.3664 119.8697 -56.3446 -85.5505 -0.0000 -0.0000 18.7237 13.9298 3.3773 0.8371 -7.1250 0.0000 -0.0000 -10.3198 33.3285 2.9940 0.0000 0.0000 0.0000 86.4038 -23.0381 47.3510 -104.2021 59.2240 -72.2673 0.0000 0.0000 8.0873 -11.3760 -2.9146 0.5861 7.1250 -0.0000 -0.0000 12.2993 -32.7749 3.7581
1.9784 15.7858 -9.0864 174.0850 -0.9849 -172.0160 0.0000 0.0000 0.0000 -28.5859 -9.7720 -18.4332 3.3427 11.2301 33.0599 -1.0690 17.9496 -6.0208 0.1002 -2.0417 -5.6210 0.0000 0.0000 0.0000 12.8025 -0.2353 -10.4577 -13.7132 -19.0247 71.3267 1.0365 -21.8196 5.6741 -0.9273 6.1348 -17.1759 -8.8639 2.3961 -0.2775 -3.3651 3.0831 1.7471 1.5123 1.3109 1.6755 -1.0529 -2.6670 -35.3061 5.1096 -7.2531 35.7424 0.6378 -2.4661 20.3100 0.0000 0.0000 0.0000 -72.7931 20.9300 60.8546 118.7162 -56.6424 -84.5886 -0.0000 -0.0000 19.0397 13.9131 3.6585 0.9056 -7.1250 0.0000 -0.0000 -10.3710 33.6129 2.9367 0.0000 0.0000 0.0000 86.8009 -24.1979 45.6627 -101.6106 59.4844 -70.0376 0.0000 0.0000 8.2691 -11.8045 -3.0952 0.6465 7.1250 -0.0000 -0.0000 11.9842 -32.9699 3.6003
1.9755 15.7586 -9.3930 173.5370 -0.5174 -172.0310 0.0000 0.0000 0.0000 -29.3821 -8.9565 -17.2556 3.3270 11.2064 32.9792 -1.1147 18.3019 -6.5420 0.1296 -2.3209 -6.3935 0.0000 0.0000 0.0000 11.8032 0.7359 -12.8628 -14.4737 -19.2515 73.6461 1.1385 -21.7732 4.2822 -0.9362 6.1632 -17.2586 -9.5287 2.1481 -0.1436 -3.4936 2.7185 1.8494 1.7377 1.1008 1.7160 -0.8942 -2.4293 -35.4015 5.1143 -6.9238 35.5195 0.7033 -2.3122 20.1712 0.0000 0.0000 0.0000 -73.9988 19.5145 60.3430 117.7844 -56.8720 -83.8093 -0.0000 -0.0000 19.2803 13.8555 3.8685 0.9534 -7.1250 0.0000 -0.0000 -10.4464 33.8233 2.9046 0.0000 0.0000 0.0000 86.9986 -25.3679 44.2266 -99.2870 59.6716 -68.0339 0.0000 0.0000 7.9976 -12.2331 -3.1713 0.6872 7.1250 -0.0000 -0.0000 11.6526 -33.0611 3.4708
1.9708 15.7460 -9.6987 173.2680 -0.1323 -171.8810 0.0000 0.0000 0.0000 -29.8313 -8.2785 -16.2437 3.3073 11.1766 32.8779 -1.1409 18.5030 -6.8645 0.1686 -2.6453 -7.2927 0.0000 0.0000 0.0000 11.1729 1.8065 -15.4032 -15.0858 -19.4109 75.4950 1.2270 -21.7993 3.0664 -0.9358 6.1618 -17.2546 -9.8420 1.8238 -0.1809 -3.5509 2.2819 1.8829 1.8489 0.8673 1.8061 -0.6884 -2.1349 -35.4660 5.0179 -6.5109 35.3782 0.7324 -2.1383 20.0630 0.0000 -0.0000 0.0000 -75.0787 18.2662 59.8482 117.2098 -57.0087 -83.3277 -0.0000 -0.0000 19.4598 13.8006 3.9899 0.9792 -7.1250 0.0000 -0.0000 -10.5077 33.9439 2.8909 0.0000 -0.0000 0.0000 86.9902 -26.5455 43.0847 -97.3070 59.7973 -66.3237 0.0000 0.0000 7.3952 -12.5822 -3.1103 0.6939 7.1250 -0.0000 -0.0000 11.3647 -33.0121 3.3957
1.9645 15.7474 -10.0044 173.2050 0.1566 -171.6330 0.0000 0.0000 0.0000 -30.0307 -7.7326 -15.2911 3.2779 11.1319 32.7259 -1.1493 18.5669 -6.9799 0.2148 -2.9835 -8.2329 0.0000 0.0000 0.0000 10.8172 2.9191 -17.9724 -15.5371 -19.5156 76.8494 1.3070 -21.8795 1.9753 -0.9233 6.1218 -17.1382 -9.8812 1.4207 -0.3026 -3.5453 1.7584 1.8603 1.8743 0.6024 1.9043 -0.4315 -1.7784 -35.4507 4.8096 -5.9947 35.2798 0.7247 -1.9389 19.9492 0.0000 -0.0000 0.0000 -76.0299 17.1949 59.3828 116.9902 -57.0600 -83.1435 -0.0000 -0.0000 19.5716 13.8100 4.0315 0.9901 -7.1250 0.0000 -0.0000 -10.5058 33.9864 2.8794 0.0000 -0.0000 0.0000 86.7608 -27.7536 42.2948 -95.7795 59.8734 -65.0030 0.0000 0.0000 6.4655 -12.8493 -2.9789 0.6791 7.1250 -0.0000 -0.0000 11.1327 -32.8891 3.3578
1.9566 15.7619 -10.3118 173.2190 0.3379 -171.3520 0.0000 0.0000 0.0000 -30.1388 -7.2801 -14.2930 3.2286 11.0562 32.4698 -1.1391 18.4890 -6.8600 0.2646 -3.3094 -9.1413 0.0000 0.0000 0.0000 10.5647 3.9932 -20.4709 -15.8247 -19.5768 77.7091 1.3760 -21.9561 0.9624 -0.9042 6.0599 -16.9582 -9.7627 0.9475 -0.4534 -3.5139 1.1478 1.8132 1.8359 0.3004 2.0057 -0.1465 -1.3718 -35.3914 4.5163 -5.3961 35.2432 0.6914 -1.7202 19.8568 0.0000 0.0000 0.0000 -76.8380 16.2762 58.9709 117.0967 -57.0352 -83.2328 -0.0000 -0.0000 19.6322 13.8765 4.0355 0.9960 -7.1250 0.0000 -0.0000 -10.4527 33.9931 2.8626 0.0000 0.0000 0.0000 86.3337 -28.9681 41.8240 -94.7190 59.9157 -64.0856 0.0000 0.0000 5.4079 -13.0109 -2.8082 0.6486 7.1250 -0.0000 -0.0000 10.9802 -32.7225 3.3553
1.9490 15.7882 -10.6213 173.2140 0.4295 -171.1020 0.0000 0.0000 0.0000 -30.2607 -6.8652 -13.1804 3.1525 10.9379 32.0706 -1.1088 18.2565 -6.4749 0.3124 -3.5932 -9.9348 0.0000 0.0000 0.0000 10.3050 5.0004 -22.8259 -15.9543 -19.6030 78.0956 1.4348 -22.0090 -0.0177 -0.8939 6.0260 -16.8598 -9.6162 0.4308 -0.5564 -3.4701 0.4719 1.7476 1.7889 -0.0307 2.0658 0.1712 -0.9229 -35.2780 4.1249 -4.7230 35.2680 0.6229 -1.4871 19.7851 0.0000 0.0000 0.0000 -77.4848 15.5112 58.6668 117.4842 -56.9439 -83.5578 -0.0000 -0.0000 19.6275 14.0059 4.0570 1.0110 -7.1250 0.0000 -0.0000 -10.3509 34.0201 2.8271 0.0000 0.0000 0.0000 85.7390 -30.2155 41.5877 -94.1205 59.9357 -63.5677 0.0000 0.0000 4.4327 -13.0569 -2.6078 0.6046 7.1250 -0.0000 -0.0000 10.9168 -32.5222 3.3890
1.9424 15.8242 -10.9323 173.1190 0.4462 -170.9200 0.0000 0.0000 0.0000 -30.4722 -6.4375 -11.9245 3.0454 10.7681 31.5018 -1.0559 17.8527 -5.7859 0.3558 -3.8319 -10.6043 0.0000 0.0000 0.0000 9.9543 5.9100 -24.9910 -15.9328 -19.5987 78.0315 1.4817 -22.0176 -0.9847 -0.9039 6.0587 -16.9550 -9.5309 -0.1111 -0.5604 -3.4300 -0.2531 1.6765 1.7674 -0.3861 2.0675 0.4910 -0.4541 -35.1435 3.6720 -4.0057 35.3481 0.5341 -1.2489 19.7453 0.0000 0.0000 0.0000 -77.9702 14.8685 58.4614 118.0818 -56.7998 -84.0583 -0.0000 -0.0000 19.6186 14.1467 4.1107 1.0351 -7.1250 0.0000 -0.0000 -10.2441 34.0803 2.7819 0.0000 0.0000 0.0000 85.0027 -31.4899 41.5228 -93.9724 59.9403 -63.4395 0.0000 0.0000 3.6524 -13.0230 -2.3717 0.5484 7.1250 -0.0000 -0.0000 10.9128 -32.2833 3.4518
1.9382 15.8702 -11.2438 172.9790 0.4106 -170.7920 0.0000 0.0000 0.0000 -30.7117 -5.9940 -10.5715 2.9105 10.5487 30.7726 -0.9801 17.2781 -4.7975 0.3898 -4.0092 -11.1026 0.0000 0.0000 0.0000 9.5744 6.7650 -26.9828 -15.7641 -19.5643 77.5281 1.5195 -22.0146 -1.8997 -0.9250 6.1273 -17.1542 -9.4940 -0.6591 -0.4641 -3.3741 -0.9998 1.5890 1.7882 -0.7500 1.9978 1.6546 -1.1193 -35.0273 2.5081 -2.6822 35.5713 0.4061 0.0533 19.7448 -0.0000 -0.0000 0.0000 -78.3044 14.3113 58.3622 118.8038 -56.6204 -84.6618 -0.0000 -0.0000 19.5737 14.2716 4.1956 1.0662 -7.1250 0.0000 -0.0000 -10.1546 34.1716 2.7342 -0.0000 -0.0000 0.0000 84.1603 -32.7908 41.5450 -94.2012 59.9332 -63.6375 0.0000 0.0000 3.1220 -12.9096 -2.1117 0.4839 7.1250 -0.0000 -0.0000 10.9691 -32.0181 3.5415
1.9363 15.9259 -11.5589 172.8140 0.3229 -170.6790 0.0000 0.0000 0.0000 -30.9509 -5.5405 -9.1601 2.7518 10.2820 29.8950 -0.8823 16.5429 -3.5410 0.4140 -4.1301 -11.4429 0.0000 0.0000 0.0000 9.1850 7.5644 -28.8002 -15.4471 -19.4956 76.5800 1.5509 -22.0131 -2.7659 -0.9648 6.2539 -17.5228 -9.4924 -1.2133 -0.3465 -3.2943 -1.7563 1.4947 1.8538 -1.1182 1.9127 1.9963 -0.6418 -34.8918 1.9142 -1.8833 35.6874 0.2628 0.3036 19.7535 0.0000 0.0000 0.0000 -78.5075 13.8483 58.3406 119.6284 -56.4082 -85.3495 -0.0000 -0.0000 19.5702 14.3547 4.2839 1.0951 -7.1250 0.0000 -0.0000 -10.0993 34.2645 2.6957 0.0000 0.0000 0.0000 83.2285 -34.0882 41.6092 -94.7124 59.9159 -64.0799 0.0000 0.0000 2.8066 -12.7671 -1.7682 0.4006 7.1250 -0.0000 -0.0000 11.0382 -31.6686 3.6591
1.9365 15.9908 -11.8781 172.6580 0.2040 -170.5560 0.0000 0.0000 0.0000 -31.1520 -5.0914 -7.7341 2.5761 9.9750 28.8958 -0.7646 15.6727 -2.0244 0.4271 -4.1944 -11.6242 0.0000 0.0000 0.0000 8.8209 8.3308 -30.4531 -14.9851 -19.3860 75.1917 1.5790 -22.0353 -3.5469 -0.9999 6.3633 -17.8423 -9.4974 -1.7650 -0.2407 -3.1872 -2.5058 1.3890 1.9519 -1.4816 1.8253 2.3447 -0.1635 -34.7713 1.2798 -1.0657 35.7959 0.1024 0.5558 19.7738 0.0000 -0.0000 0.0000 -78.5804 13.4143 58.3613 120.4292 -56.1945 -86.0157 -0.0000 -0.0000 19.5992 14.3852 4.3448 1.1131 -7.1250 0.0000 -0.0000 -10.0830 34.3277 2.6756 0.0000 -0.0000 0.0000 82.2457 -35.3720 41.6875 -95.4304 59.8883 -64.7011 0.0000 0.0000 2.5595 -12.6092 -1.3681 0.3060 7.1250 -0.0000 -0.0000 11.1126 -31.2623 3.7952
